<svg width="384" height="103" viewBox="0 0 384 103" fill="none" xmlns="http://www.w3.org/2000/svg">
<path d="M51.0466 0C76.2615 0 97.2063 18.282 101.349 42.3138C98.48 42.3696 95.6533 43.6392 93.6987 46.038C93.3188 46.5042 92.9874 46.9942 92.7037 47.5017C89.6046 52.7533 81.2821 56.6673 74.0822 46.6537C72.9637 44.9954 71.586 43.4712 69.9552 42.1424C63.9085 37.2152 55.9332 36.237 49.1528 38.8892C38.7816 42.6607 35.3131 36.0636 35.3683 31.6645C35.418 29.2366 34.3895 26.8116 32.361 25.1587C28.8635 22.3087 23.7178 22.8337 20.8678 26.3312C18.0178 29.8288 18.5428 34.9745 22.0403 37.8245C23.8175 39.2726 26.0202 39.8494 28.1311 39.6076C32.4942 39.1074 39.4242 41.8945 36.71 52.5641C34.4814 60.3474 36.9181 69.0578 43.5919 74.4959C52.526 81.7759 65.6703 80.435 72.9503 71.5008C74.5503 69.5373 75.7336 67.3704 76.5117 65.1071C80.8892 53.5412 89.98 55.2124 94.3169 59.511C94.5777 59.7763 94.8556 60.0301 95.1506 60.2706C96.8228 61.6332 98.7993 62.3726 100.799 62.5179C95.5935 85.1863 75.2945 102.093 51.0466 102.093C22.8543 102.093 0 79.2388 0 51.0466C0 22.8543 22.8543 0 51.0466 0ZM24.2261 56.3895C23.2467 53.4387 20.0606 51.8406 17.1098 52.8199C14.1591 53.7993 12.5609 56.9853 13.5402 59.9361C14.5196 62.8869 17.7057 64.4851 20.6565 63.5057C23.6073 62.5263 25.2055 59.3403 24.2261 56.3895ZM101.349 42.3138C103.66 42.2688 105.999 43.0114 107.931 44.5861C112.262 48.1153 112.913 54.4875 109.383 58.8186C107.217 61.4776 103.978 62.749 100.799 62.5179C101.646 58.8306 102.093 54.9908 102.093 51.0466C102.093 48.0692 101.838 45.1514 101.349 42.3138Z" fill="#E00000"/>
<path d="M68.4424 47.3678C62.3899 42.4358 53.4851 43.3443 48.5531 49.3969C43.6211 55.4495 44.5296 64.3541 50.5822 69.2861C56.6347 74.2181 65.5394 73.3097 70.4714 67.2571C75.4034 61.2046 74.495 52.2998 68.4424 47.3678Z" fill="#E00000"/>
<path d="M347.727 11.175V80.2055C347.727 83.0068 348.161 84.9076 349.028 85.908C349.961 86.9085 351.529 87.4087 353.73 87.4087V89.5096C352.463 89.4429 350.595 89.3762 348.127 89.3095C345.726 89.1761 343.259 89.1094 340.724 89.1094C338.123 89.1094 335.488 89.1761 332.821 89.3095C330.219 89.3762 328.252 89.4429 326.918 89.5096V87.4087C329.252 87.4087 330.886 86.9085 331.82 85.908C332.821 84.9076 333.321 83.0068 333.321 80.2055V23.1803C333.321 20.179 332.854 17.9781 331.92 16.5774C331.053 15.1101 329.386 14.3765 326.918 14.3765V12.2755C329.052 12.4756 331.12 12.5757 333.121 12.5757C335.855 12.5757 338.456 12.4756 340.924 12.2755C343.392 12.0088 345.66 11.6419 347.727 11.175ZM380.342 37.7868V39.7877C378.274 40.1879 376.206 41.0549 374.139 42.3888C372.071 43.7228 369.97 45.4235 367.836 47.4911L360.133 55.4946L361.133 53.5938L378.241 82.2064C378.974 83.4069 379.741 84.4741 380.542 85.4078C381.342 86.3416 382.309 87.0085 383.443 87.4087V89.5096C382.442 89.4429 380.942 89.3762 378.941 89.3095C376.94 89.1761 374.939 89.1094 372.938 89.1094C370.471 89.1094 368.003 89.1761 365.535 89.3095C363.067 89.3762 361.233 89.4429 360.033 89.5096V87.4087C361.367 87.4087 362.267 87.1086 362.734 86.5083C363.201 85.8413 363.134 85.0076 362.534 84.0072L352.629 66.0993C351.829 64.8321 351.029 64.0317 350.228 63.6982C349.495 63.2981 348.494 63.0646 347.227 62.9979V61.0971C348.628 60.9637 349.828 60.7303 350.829 60.3968C351.896 60.0633 352.863 59.4297 353.73 58.4959L361.333 51.0927C363.601 48.9584 364.735 47.0576 364.735 45.3902C364.735 43.7227 364.001 42.3888 362.534 41.3884C361.133 40.3879 359.266 39.8544 356.931 39.7877V37.7868C358.799 37.8535 360.833 37.9202 363.034 37.9869C365.235 38.0536 367.102 38.0869 368.636 38.0869C369.97 38.0869 371.371 38.0869 372.838 38.0869C374.372 38.0202 375.806 37.9869 377.14 37.9869C378.474 37.9202 379.541 37.8535 380.342 37.7868Z" fill="#E00000"/>
<path d="M303.177 36.3872C305.979 36.3872 308.246 36.754 309.98 37.4877C311.781 38.1547 313.182 39.0884 314.182 40.2889C315.249 41.5562 316.016 43.1902 316.483 45.1911C317.017 47.192 317.284 49.8932 317.284 53.2947V80.2066C317.284 83.0078 317.75 84.9086 318.684 85.9091C319.685 86.9095 321.352 87.4097 323.686 87.4097V89.5107C322.419 89.444 320.518 89.3773 317.984 89.3106C315.449 89.1772 312.948 89.1105 310.481 89.1105C307.946 89.1105 305.445 89.1772 302.977 89.3106C300.576 89.3773 298.742 89.444 297.475 89.5107V87.4097C299.476 87.4097 300.876 86.9095 301.677 85.9091C302.477 84.9086 302.877 83.0078 302.877 80.2066V49.0928C302.877 47.4254 302.71 45.9914 302.377 44.7909C302.044 43.5237 301.443 42.5566 300.576 41.8896C299.709 41.156 298.409 40.7892 296.674 40.7892C294.874 40.7892 293.206 41.2894 291.672 42.2898C290.205 43.2903 289.004 44.6909 288.071 46.4917C287.204 48.2258 286.77 50.1933 286.77 52.3943V80.2066C286.77 83.0078 287.17 84.9086 287.971 85.9091C288.838 86.9095 290.238 87.4097 292.173 87.4097V89.5107C290.972 89.444 289.205 89.3773 286.87 89.3106C284.602 89.1772 282.235 89.1105 279.767 89.1105C277.233 89.1105 274.631 89.1772 271.964 89.3106C269.296 89.3773 267.295 89.444 265.961 89.5107V87.4097C268.295 87.4097 269.929 86.9095 270.863 85.9091C271.864 84.9086 272.364 83.0078 272.364 80.2066V48.6926C272.364 45.6913 271.897 43.4903 270.963 42.0897C270.096 40.6224 268.429 39.8888 265.961 39.8888V37.7878C268.095 37.9879 270.163 38.088 272.164 38.088C274.965 38.088 277.566 37.9879 279.967 37.7878C282.435 37.521 284.703 37.1542 286.77 36.6873V45.6913C288.438 42.2898 290.705 39.8888 293.573 38.4881C296.441 37.0875 299.642 36.3872 303.177 36.3872Z" fill="#E00000"/>
<path d="M235.206 36.3872C240.075 36.3872 244.343 37.2876 248.012 39.0884C251.68 40.8892 254.548 43.7905 256.616 47.7922C258.683 51.794 259.717 57.0964 259.717 63.6993C259.717 70.3022 258.683 75.6045 256.616 79.6063C254.548 83.5414 251.68 86.4093 248.012 88.2101C244.343 90.0109 240.075 90.9113 235.206 90.9113C230.471 90.9113 226.236 90.0109 222.501 88.2101C218.832 86.4093 215.931 83.5414 213.797 79.6063C211.729 75.6045 210.695 70.3022 210.695 63.6993C210.695 57.0964 211.729 51.794 213.797 47.7922C215.931 43.7905 218.832 40.8892 222.501 39.0884C226.236 37.2876 230.471 36.3872 235.206 36.3872ZM235.206 38.3881C232.538 38.3881 230.304 40.389 228.503 44.3907C226.702 48.3258 225.802 54.762 225.802 63.6993C225.802 72.6365 226.702 79.0727 228.503 83.0078C230.304 86.9429 232.538 88.9104 235.206 88.9104C237.941 88.9104 240.175 86.9429 241.909 83.0078C243.71 79.0727 244.61 72.6365 244.61 63.6993C244.61 54.762 243.71 48.3258 241.909 44.3907C240.175 40.389 237.941 38.3881 235.206 38.3881Z" fill="#E00000"/>
<path d="M156.228 37.7851V39.886C154.76 39.886 153.46 39.9861 152.326 40.1862C151.259 40.3196 150.525 40.7864 150.125 41.5868C149.791 42.3871 149.925 43.6877 150.525 45.4885L160.029 75.2016L158.729 76.6022L170.434 37.6851L172.435 38.5855L157.128 89.708C156.061 89.6413 154.994 89.608 153.927 89.608C152.859 89.608 151.759 89.6413 150.625 89.708L134.818 45.4885C133.884 42.8207 132.851 41.22 131.717 40.6864C130.65 40.1528 129.749 39.886 129.016 39.886V37.7851C131.15 37.9852 133.351 38.1519 135.619 38.2853C137.953 38.352 140.487 38.3854 143.222 38.3854C145.289 38.3854 147.457 38.3187 149.725 38.1853C152.059 38.0519 154.227 37.9185 156.228 37.7851ZM208.451 37.7851V39.786C207.183 40.1195 205.983 40.8865 204.849 42.087C203.715 43.2875 202.648 45.3885 201.648 48.3898L188.342 89.708C187.275 89.6413 186.174 89.608 185.04 89.608C183.973 89.608 182.906 89.6413 181.839 89.708L167.733 51.191L170.434 37.6851C171.634 37.7518 172.835 37.7851 174.036 37.7851C175.303 37.7184 176.537 37.6851 177.737 37.6851L191.443 78.1029L190.343 77.0024L197.046 55.793C198.179 52.1248 198.613 49.1568 198.346 46.8891C198.079 44.6215 197.279 42.9207 195.945 41.7869C194.611 40.653 192.81 39.9861 190.543 39.786V37.7851C191.61 37.8518 192.744 37.9185 193.944 37.9852C195.212 37.9852 196.445 38.0185 197.646 38.0852C198.913 38.0852 199.98 38.0852 200.847 38.0852C202.181 38.0852 203.549 38.0519 204.949 37.9852C206.416 37.9185 207.584 37.8518 208.451 37.7851Z" fill="#E00000"/>
</svg>
